# xmcd
#
# Track frame offsets:
#	150
#	13008
#	26121
#	40022
#	52550
#	62886
#	88783
#	99992
#	115086
#	123342
#	137995
#	155535
#
# Disc length: 2316 seconds
#
# Revision: 0
# Processed by: cddbd v1.5.2PL0 Copyright (c) Steve Scherf et al.
# Submitted via: EZCDAudioConverter 3.1.7.1
#
DISCID=95090a0c
DTITLE=Simon Stokes and The Nighthawks
DYEAR=1900
DGENRE=
TTITLE0=Big City Blues
TTITLE1=Where are you going
TTITLE2=Jambalaya (On the Bayou)
TTITLE3=Sugar Ann
TTITLE4=Southern Girl
TTITLE5=Which way
TTITLE6=Voodoo woman
TTITLE7=Rhode Island Red
TTITLE8=Cajun Lil
TTITLE9=Down in Mexico
TTITLE10=You've been in
TTITLE11=Ride on Angel
EXTD=
EXTT0=
EXTT1=
EXTT2=
EXTT3=
EXTT4=
EXTT5=
EXTT6=
EXTT7=
EXTT8=
EXTT9=
EXTT10=
EXTT11=
PLAYORDER=
